<svg xmlns="http://www.w3.org/2000/svg" viewBox="0 0 418.08 86.28" role="img" aria-label="Atlamaz Studio">
<path fill="#0B0B0F" d="M46.08 0.00L59.07 0.00L66.43 24.08L95.14 24.08L95.14 31.08L68.57 31.08L73.15 46.08L64.19 46.08L59.56 31.08L45.52 31.08L40.96 46.08L32.00 46.08L36.58 31.08L0.00 31.08L0.00 24.08L38.72 24.08ZM52.48 8.19L47.65 24.08L57.39 24.08ZM134.13 24.08L134.13 31.08L110.84 31.08L110.84 24.08ZM184.18 24.08L191.54 0.00L204.53 0.00L211.89 24.08L229.91 24.08L229.91 31.08L214.02 31.08L218.61 46.08L209.65 46.08L205.01 31.08L190.98 31.08L186.42 46.08L177.46 46.08L182.04 31.08L149.84 31.08L149.84 24.08ZM202.85 24.08L197.94 8.19L193.11 24.08ZM107.34 46.08L98.64 46.08L98.64 8.13L84.11 8.13L84.11 0.00L121.87 0.00L121.87 8.13L107.34 8.13ZM137.63 0.00L146.34 0.00L146.34 37.95L166.18 37.95L166.18 46.08L137.63 46.08ZM335.44 46.08L326.48 46.08L321.84 31.08L307.81 31.08L303.25 46.08L294.29 46.08L298.87 31.08L282.99 31.08L282.99 24.08L301.01 24.08L308.37 0.00L321.36 0.00L328.72 24.08L357.31 24.08L353.15 31.08L330.86 31.08ZM314.77 8.19L309.94 24.08L319.68 24.08ZM418.08 24.08L418.08 31.08L372.41 31.08L376.55 24.08ZM279.49 46.08L271.36 46.08L271.36 18.56L257.98 46.08L254.91 46.08L241.54 18.56L241.54 46.08L233.41 46.08L233.41 0.00L241.22 0.00L256.45 30.59L271.68 0.00L279.49 0.00ZM364.32 37.89L385.44 37.89L385.44 46.08L348.96 46.08L348.96 44.99L370.85 8.13L350.88 8.13L350.88 0.00L386.08 0.00L386.08 1.09Z"/>
<path fill="#0B0B0F" fill-opacity="0.6" d="M201.34 86.26L201.17 86.25L201.00 86.23L200.84 86.20L200.68 86.16L200.52 86.12L200.36 86.08L200.21 86.02L200.07 85.96L199.92 85.90L199.78 85.83L199.65 85.75L199.51 85.67L199.39 85.58L199.27 85.49L199.15 85.39L199.04 85.29L198.93 85.18L198.83 85.07L198.74 84.95L198.65 84.83L198.56 84.70L198.48 84.57L198.40 84.43L198.33 84.29L198.27 84.15L198.22 84.00L198.17 83.85L198.13 83.69L198.09 83.53L198.06 83.36L198.04 83.20L198.02 83.02L198.01 82.85L198.01 82.67L198.01 76.73L199.18 76.72L199.18 82.57L199.18 82.68L199.18 82.79L199.19 82.89L199.20 82.99L199.22 83.09L199.23 83.19L199.25 83.28L199.28 83.38L199.30 83.47L199.33 83.56L199.37 83.64L199.40 83.72L199.44 83.80L199.48 83.88L199.52 83.96L199.57 84.03L199.61 84.10L199.66 84.17L199.71 84.24L199.77 84.30L199.82 84.37L199.88 84.43L199.94 84.48L200.00 84.54L200.06 84.59L200.12 84.64L200.19 84.69L200.25 84.74L200.32 84.78L200.39 84.82L200.45 84.86L200.52 84.90L200.59 84.93L200.67 84.97L200.74 85.00L200.81 85.02L200.89 85.05L200.96 85.07L201.03 85.09L201.11 85.11L201.18 85.13L201.26 85.14L201.33 85.16L201.40 85.17L201.48 85.17L201.55 85.18L201.63 85.18L201.70 85.18L201.77 85.18L201.85 85.18L201.92 85.17L202.00 85.16L202.07 85.15L202.15 85.14L202.22 85.13L202.30 85.11L202.37 85.09L202.45 85.07L202.52 85.05L202.60 85.02L202.67 84.99L202.74 84.96L202.82 84.93L202.89 84.89L202.96 84.86L203.02 84.82L203.09 84.78L203.16 84.73L203.22 84.69L203.29 84.64L203.35 84.59L203.41 84.54L203.47 84.48L203.53 84.42L203.59 84.36L203.64 84.30L203.69 84.24L203.74 84.17L203.79 84.10L203.84 84.03L203.88 83.96L203.92 83.88L203.96 83.80L204.00 83.72L204.04 83.64L204.07 83.55L204.10 83.46L204.12 83.37L204.15 83.28L204.17 83.19L204.18 83.09L204.20 82.99L204.21 82.89L204.22 82.78L204.22 82.68L204.22 82.57L204.22 76.72L205.39 76.72L205.39 82.67L205.39 82.85L205.38 83.02L205.36 83.19L205.34 83.36L205.31 83.52L205.27 83.68L205.23 83.84L205.18 83.99L205.13 84.14L205.06 84.29L205.00 84.43L204.92 84.57L204.84 84.70L204.75 84.83L204.66 84.95L204.57 85.07L204.46 85.18L204.36 85.29L204.25 85.39L204.13 85.49L204.01 85.58L203.88 85.67L203.75 85.75L203.62 85.83L203.48 85.90L203.33 85.96L203.19 86.02L203.03 86.08L202.88 86.12L202.72 86.16L202.56 86.20L202.40 86.23L202.23 86.25L202.05 86.26L201.88 86.27L201.70 86.28L201.52 86.27ZM166.85 86.25L166.70 86.24L166.54 86.22L166.39 86.19L166.25 86.16L166.10 86.12L165.96 86.08L165.82 86.04L165.68 85.99L165.55 85.94L165.42 85.88L165.29 85.82L165.17 85.75L165.05 85.68L164.93 85.61L164.82 85.53L164.71 85.44L164.61 85.36L164.51 85.27L164.42 85.17L164.32 85.07L164.24 84.97L164.15 84.87L164.07 84.76L164.00 84.64L163.93 84.53L163.87 84.41L163.81 84.29L163.76 84.16L163.71 84.03L163.66 83.90L163.62 83.77L163.59 83.63L163.56 83.49L164.76 83.30L164.80 83.44L164.85 83.58L164.90 83.72L164.96 83.84L165.03 83.97L165.11 84.09L165.19 84.20L165.28 84.30L165.38 84.41L165.48 84.50L165.59 84.59L165.70 84.68L165.83 84.76L165.95 84.83L166.08 84.90L166.21 84.96L166.35 85.01L166.49 85.05L166.63 85.09L166.78 85.12L166.93 85.15L167.08 85.16L167.24 85.17L167.40 85.18L167.50 85.18L167.60 85.17L167.71 85.16L167.80 85.15L167.90 85.14L168.00 85.13L168.09 85.11L168.18 85.09L168.28 85.06L168.36 85.04L168.45 85.01L168.54 84.98L168.62 84.94L168.70 84.91L168.78 84.87L168.85 84.83L168.93 84.78L169.00 84.74L169.06 84.69L169.12 84.64L169.18 84.58L169.24 84.53L169.30 84.47L169.35 84.41L169.40 84.35L169.44 84.28L169.48 84.22L169.51 84.15L169.54 84.08L169.57 84.00L169.59 83.93L169.61 83.85L169.63 83.78L169.64 83.70L169.64 83.62L169.65 83.53L169.65 83.48L169.64 83.43L169.64 83.38L169.63 83.33L169.63 83.29L169.62 83.24L169.61 83.20L169.60 83.16L169.59 83.11L169.57 83.07L169.56 83.03L169.54 83.00L169.52 82.96L169.50 82.92L169.48 82.89L169.46 82.85L169.44 82.82L169.41 82.79L169.39 82.76L169.36 82.73L169.33 82.70L169.31 82.67L169.28 82.64L169.25 82.61L169.22 82.59L169.18 82.56L169.15 82.54L169.12 82.51L169.08 82.49L169.05 82.47L169.01 82.44L168.98 82.42L168.94 82.40L168.90 82.38L168.87 82.36L168.83 82.34L168.79 82.32L168.75 82.31L168.71 82.29L168.67 82.27L168.63 82.26L168.59 82.24L168.55 82.23L168.51 82.21L168.47 82.20L168.42 82.19L168.38 82.17L168.34 82.16L165.95 81.45L165.89 81.43L165.83 81.41L165.76 81.39L165.70 81.37L165.63 81.34L165.57 81.32L165.51 81.29L165.45 81.27L165.38 81.24L165.32 81.21L165.26 81.19L165.20 81.16L165.14 81.13L165.08 81.09L165.02 81.06L164.97 81.03L164.91 80.99L164.86 80.95L164.80 80.92L164.75 80.88L164.70 80.84L164.65 80.80L164.60 80.75L164.55 80.71L164.50 80.66L164.46 80.61L164.41 80.57L164.37 80.52L164.33 80.46L164.29 80.41L164.26 80.36L164.22 80.30L164.19 80.24L164.16 80.18L164.12 80.12L164.10 80.06L164.07 79.99L164.04 79.93L164.02 79.86L164.00 79.79L163.98 79.72L163.97 79.64L163.96 79.57L163.95 79.49L163.94 79.41L163.93 79.33L163.93 79.24L163.93 79.16L163.93 79.02L163.94 78.89L163.95 78.76L163.97 78.63L164.00 78.51L164.03 78.39L164.07 78.27L164.12 78.16L164.17 78.05L164.23 77.94L164.29 77.84L164.36 77.74L164.43 77.64L164.51 77.55L164.59 77.46L164.68 77.38L164.77 77.30L164.87 77.22L164.97 77.14L165.07 77.08L165.18 77.01L165.29 76.95L165.41 76.89L165.53 76.84L165.66 76.79L165.78 76.74L165.91 76.70L166.05 76.66L166.18 76.63L166.32 76.60L166.46 76.58L166.60 76.56L166.75 76.55L166.90 76.54L167.05 76.53L167.20 76.53L167.36 76.53L167.51 76.54L167.66 76.55L167.81 76.57L167.95 76.59L168.10 76.62L168.23 76.65L168.37 76.68L168.50 76.72L168.64 76.77L168.76 76.81L168.89 76.87L169.01 76.92L169.13 76.98L169.25 77.05L169.36 77.12L169.47 77.19L169.57 77.27L169.67 77.35L169.77 77.43L169.86 77.52L169.95 77.61L170.04 77.71L170.12 77.81L170.20 77.91L170.28 78.02L170.35 78.13L170.42 78.24L170.48 78.36L170.53 78.48L170.59 78.60L170.64 78.73L170.68 78.86L170.72 78.99L170.75 79.13L170.78 79.27L169.56 79.48L169.54 79.39L169.52 79.30L169.49 79.21L169.46 79.12L169.43 79.03L169.40 78.95L169.36 78.87L169.32 78.79L169.28 78.71L169.23 78.64L169.18 78.57L169.12 78.50L169.07 78.43L169.01 78.37L168.95 78.30L168.88 78.24L168.82 78.19L168.75 78.13L168.68 78.08L168.60 78.03L168.53 77.98L168.45 77.94L168.37 77.90L168.29 77.86L168.20 77.82L168.12 77.79L168.03 77.76L167.94 77.74L167.85 77.71L167.76 77.69L167.67 77.67L167.58 77.66L167.48 77.65L167.39 77.64L167.29 77.63L167.19 77.63L167.09 77.63L167.00 77.63L166.91 77.64L166.82 77.65L166.73 77.66L166.65 77.67L166.56 77.69L166.48 77.71L166.39 77.73L166.31 77.75L166.23 77.78L166.16 77.81L166.08 77.84L166.01 77.88L165.94 77.92L165.87 77.95L165.80 77.99L165.74 78.04L165.68 78.08L165.62 78.13L165.57 78.18L165.52 78.23L165.47 78.28L165.42 78.34L165.38 78.39L165.34 78.45L165.30 78.51L165.27 78.57L165.24 78.63L165.22 78.70L165.20 78.76L165.18 78.83L165.17 78.89L165.16 78.96L165.15 79.03L165.15 79.11L165.15 79.18L165.16 79.24L165.16 79.31L165.18 79.37L165.19 79.43L165.21 79.49L165.23 79.55L165.26 79.60L165.29 79.66L165.32 79.71L165.36 79.75L165.40 79.80L165.44 79.84L165.48 79.88L165.53 79.92L165.57 79.96L165.62 80.00L165.67 80.03L165.72 80.07L165.78 80.10L165.83 80.13L165.89 80.16L165.94 80.19L166.00 80.21L166.06 80.24L166.12 80.26L166.18 80.29L166.24 80.31L166.30 80.33L166.36 80.35L166.42 80.37L166.48 80.39L166.54 80.41L166.59 80.43L166.65 80.45L166.71 80.46L168.49 80.98L168.54 80.99L168.59 81.01L168.65 81.02L168.70 81.04L168.76 81.06L168.82 81.08L168.88 81.10L168.94 81.12L169.00 81.14L169.06 81.16L169.13 81.19L169.19 81.21L169.26 81.24L169.33 81.26L169.39 81.29L169.46 81.32L169.52 81.36L169.59 81.39L169.65 81.43L169.72 81.46L169.78 81.50L169.85 81.54L169.91 81.59L169.97 81.63L170.03 81.68L170.09 81.73L170.15 81.78L170.21 81.83L170.26 81.89L170.32 81.94L170.37 82.01L170.42 82.07L170.46 82.13L170.51 82.20L170.55 82.27L170.60 82.35L170.63 82.42L170.67 82.50L170.70 82.58L170.73 82.67L170.76 82.76L170.78 82.85L170.80 82.94L170.82 83.04L170.83 83.14L170.84 83.25L170.84 83.36L170.84 83.47L170.84 83.58L170.84 83.69L170.83 83.80L170.81 83.90L170.80 84.00L170.78 84.11L170.75 84.20L170.72 84.30L170.69 84.40L170.66 84.49L170.62 84.58L170.57 84.67L170.53 84.76L170.48 84.84L170.42 84.92L170.37 85.00L170.31 85.08L170.25 85.15L170.19 85.23L170.12 85.29L170.05 85.36L169.98 85.43L169.90 85.49L169.82 85.55L169.74 85.61L169.66 85.66L169.57 85.72L169.48 85.77L169.39 85.82L169.30 85.86L169.21 85.91L169.11 85.95L169.01 85.99L168.91 86.02L168.81 86.06L168.70 86.09L168.60 86.12L168.49 86.15L168.38 86.17L168.27 86.19L168.16 86.21L168.04 86.23L167.93 86.24L167.81 86.25L167.70 86.26L167.58 86.27L167.46 86.27L167.34 86.28L167.17 86.27L167.01 86.27ZM180.43 76.72L187.97 76.72L187.97 77.82L184.78 77.82L184.78 86.08L183.62 86.08L183.62 77.82L180.43 77.82ZM219.12 76.72L219.15 76.72L219.18 76.72L219.22 76.72L219.25 76.72L219.29 76.72L219.34 76.72L219.38 76.72L219.43 76.72L219.48 76.72L219.54 76.73L219.60 76.73L219.66 76.73L219.72 76.73L219.77 76.73L219.83 76.74L219.89 76.74L219.95 76.74L220.00 76.75L220.06 76.75L220.12 76.76L220.17 76.76L220.23 76.77L220.28 76.78L220.46 76.81L220.63 76.84L220.80 76.88L220.96 76.93L221.12 76.99L221.28 77.05L221.43 77.12L221.57 77.19L221.71 77.28L221.84 77.37L221.97 77.46L222.10 77.57L222.22 77.68L222.33 77.79L222.44 77.91L222.54 78.04L222.64 78.17L222.74 78.30L222.83 78.44L222.91 78.59L222.99 78.73L223.07 78.89L223.13 79.05L223.20 79.21L223.26 79.38L223.31 79.55L223.36 79.72L223.40 79.89L223.44 80.07L223.48 80.25L223.51 80.44L223.53 80.63L223.55 80.81L223.56 81.01L223.57 81.20L223.57 81.40L223.57 81.60L223.56 81.79L223.55 81.99L223.53 82.17L223.51 82.36L223.48 82.55L223.44 82.73L223.40 82.91L223.36 83.08L223.31 83.25L223.26 83.42L223.20 83.59L223.13 83.75L223.07 83.91L222.99 84.07L222.91 84.21L222.83 84.36L222.74 84.50L222.64 84.63L222.54 84.76L222.44 84.89L222.33 85.01L222.22 85.12L222.10 85.23L221.97 85.34L221.84 85.43L221.71 85.52L221.57 85.61L221.43 85.68L221.28 85.75L221.12 85.81L220.96 85.87L220.80 85.92L220.63 85.96L220.46 85.99L220.28 86.02L220.23 86.03L220.17 86.03L220.12 86.04L220.06 86.04L220.00 86.05L219.95 86.05L219.89 86.06L219.83 86.06L219.77 86.06L219.71 86.07L219.65 86.07L219.59 86.07L219.54 86.07L219.48 86.07L219.43 86.07L219.38 86.08L219.33 86.08L219.29 86.08L219.25 86.08L219.21 86.08L219.18 86.08L219.15 86.08L219.12 86.08L219.10 86.08L216.21 86.08L216.21 76.72L219.10 76.72ZM219.18 84.97L219.22 84.97L219.27 84.97L219.31 84.97L219.36 84.97L219.41 84.97L219.45 84.97L219.50 84.97L219.55 84.96L219.60 84.96L219.65 84.96L219.70 84.96L219.75 84.95L219.80 84.95L219.85 84.95L219.89 84.94L219.94 84.94L219.98 84.93L220.02 84.93L220.06 84.92L220.11 84.92L220.14 84.91L220.18 84.90L220.31 84.88L220.43 84.85L220.55 84.81L220.66 84.77L220.77 84.72L220.88 84.67L220.98 84.62L221.08 84.55L221.17 84.49L221.26 84.42L221.34 84.34L221.42 84.26L221.50 84.17L221.58 84.09L221.65 83.99L221.71 83.90L221.78 83.80L221.84 83.70L221.89 83.59L221.94 83.48L221.99 83.37L222.04 83.25L222.08 83.13L222.12 83.01L222.16 82.89L222.19 82.76L222.22 82.63L222.24 82.50L222.27 82.37L222.29 82.24L222.30 82.10L222.32 81.96L222.33 81.82L222.33 81.68L222.34 81.54L222.34 81.40L222.34 81.25L222.33 81.11L222.33 80.97L222.32 80.83L222.30 80.69L222.28 80.55L222.26 80.42L222.24 80.28L222.21 80.15L222.19 80.02L222.15 79.89L222.12 79.77L222.08 79.65L222.04 79.53L221.99 79.41L221.94 79.30L221.89 79.19L221.83 79.08L221.77 78.98L221.71 78.88L221.64 78.79L221.57 78.70L221.50 78.61L221.42 78.53L221.34 78.45L221.25 78.37L221.16 78.30L221.07 78.24L220.97 78.18L220.87 78.12L220.77 78.07L220.66 78.03L220.55 77.99L220.43 77.95L220.31 77.92L220.18 77.90L220.14 77.89L220.10 77.88L220.06 77.88L220.02 77.87L219.98 77.86L219.93 77.86L219.89 77.85L219.84 77.85L219.79 77.85L219.75 77.84L219.69 77.84L219.64 77.84L219.59 77.84L219.54 77.83L219.49 77.83L219.44 77.83L219.40 77.83L219.35 77.83L219.31 77.83L219.26 77.83L219.22 77.83L219.18 77.83L219.14 77.83L219.10 77.83L217.40 77.83L217.40 84.97L219.10 84.97L219.14 84.97ZM235.35 86.08L234.19 86.08L234.19 76.72L235.35 76.72ZM249.26 86.21L249.06 86.17L248.86 86.12L248.66 86.06L248.47 86.00L248.29 85.93L248.11 85.85L247.94 85.76L247.78 85.66L247.62 85.55L247.46 85.44L247.32 85.32L247.18 85.19L247.05 85.06L246.92 84.92L246.80 84.77L246.68 84.62L246.58 84.46L246.47 84.29L246.38 84.12L246.29 83.94L246.21 83.76L246.14 83.57L246.07 83.37L246.01 83.17L245.96 82.97L245.91 82.76L245.87 82.54L245.84 82.32L245.81 82.10L245.80 81.87L245.79 81.64L245.78 81.40L245.79 81.16L245.80 80.93L245.81 80.70L245.84 80.48L245.87 80.26L245.91 80.04L245.96 79.83L246.01 79.63L246.07 79.43L246.14 79.23L246.21 79.04L246.29 78.86L246.38 78.68L246.47 78.51L246.58 78.34L246.68 78.18L246.80 78.03L246.92 77.88L247.05 77.74L247.18 77.61L247.32 77.48L247.46 77.36L247.62 77.25L247.78 77.14L247.94 77.04L248.11 76.95L248.29 76.87L248.47 76.80L248.66 76.74L248.86 76.68L249.06 76.63L249.26 76.59L249.48 76.56L249.70 76.54L249.92 76.53L250.15 76.53L250.38 76.53L250.61 76.54L250.82 76.56L251.04 76.59L251.25 76.63L251.45 76.68L251.64 76.74L251.83 76.80L252.01 76.87L252.19 76.95L252.36 77.04L252.53 77.14L252.69 77.25L252.84 77.36L252.99 77.48L253.13 77.61L253.26 77.74L253.39 77.88L253.51 78.03L253.62 78.18L253.73 78.34L253.83 78.51L253.92 78.68L254.01 78.86L254.09 79.04L254.17 79.23L254.23 79.43L254.29 79.63L254.34 79.83L254.39 80.04L254.43 80.26L254.46 80.48L254.49 80.70L254.50 80.93L254.51 81.16L254.52 81.40L254.51 81.64L254.50 81.87L254.49 82.10L254.46 82.32L254.43 82.54L254.39 82.76L254.34 82.97L254.29 83.17L254.23 83.37L254.17 83.57L254.09 83.76L254.01 83.94L253.92 84.12L253.83 84.29L253.73 84.46L253.62 84.62L253.51 84.77L253.39 84.92L253.26 85.06L253.13 85.19L252.99 85.32L252.84 85.44L252.69 85.55L252.53 85.66L252.36 85.76L252.19 85.85L252.01 85.93L251.83 86.00L251.64 86.06L251.45 86.12L251.25 86.17L251.04 86.21L250.82 86.24L250.61 86.26L250.38 86.27L250.15 86.28L249.92 86.27L249.70 86.26L249.48 86.24ZM250.81 85.12L250.96 85.09L251.11 85.06L251.25 85.01L251.39 84.96L251.52 84.91L251.65 84.84L251.78 84.78L251.89 84.70L252.01 84.62L252.12 84.53L252.22 84.44L252.32 84.34L252.42 84.24L252.51 84.13L252.59 84.01L252.67 83.90L252.75 83.77L252.82 83.64L252.88 83.51L252.94 83.37L253.00 83.23L253.05 83.08L253.09 82.93L253.13 82.77L253.17 82.61L253.20 82.45L253.23 82.29L253.25 82.12L253.27 81.94L253.28 81.77L253.29 81.58L253.29 81.40L253.29 81.21L253.28 81.03L253.27 80.86L253.25 80.68L253.23 80.51L253.20 80.35L253.17 80.18L253.13 80.02L253.09 79.87L253.05 79.72L253.00 79.57L252.94 79.43L252.88 79.29L252.82 79.16L252.75 79.03L252.67 78.91L252.59 78.79L252.51 78.68L252.42 78.57L252.32 78.47L252.22 78.37L252.12 78.28L252.01 78.19L251.89 78.11L251.78 78.04L251.65 77.97L251.52 77.90L251.39 77.85L251.25 77.80L251.11 77.75L250.96 77.72L250.81 77.69L250.65 77.66L250.49 77.65L250.32 77.63L250.15 77.63L249.98 77.63L249.81 77.64L249.65 77.66L249.49 77.68L249.34 77.71L249.19 77.74L249.05 77.79L248.91 77.84L248.78 77.89L248.65 77.95L248.53 78.02L248.41 78.10L248.30 78.18L248.19 78.27L248.09 78.36L247.99 78.46L247.89 78.56L247.80 78.67L247.72 78.78L247.64 78.90L247.56 79.02L247.49 79.15L247.43 79.28L247.37 79.42L247.31 79.57L247.26 79.72L247.21 79.87L247.17 80.02L247.13 80.18L247.10 80.34L247.08 80.51L247.05 80.68L247.03 80.85L247.02 81.03L247.01 81.21L247.01 81.40L247.01 81.58L247.02 81.77L247.03 81.94L247.05 82.11L247.07 82.28L247.09 82.45L247.12 82.61L247.16 82.77L247.20 82.92L247.25 83.07L247.30 83.22L247.35 83.36L247.42 83.50L247.48 83.63L247.55 83.76L247.63 83.89L247.71 84.00L247.79 84.12L247.88 84.22L247.98 84.33L248.08 84.42L248.18 84.52L248.29 84.60L248.40 84.69L248.52 84.76L248.65 84.83L248.78 84.90L248.91 84.95L249.05 85.00L249.19 85.05L249.34 85.08L249.49 85.11L249.65 85.14L249.81 85.15L249.98 85.17L250.15 85.17L250.32 85.17L250.49 85.16L250.65 85.14Z"/>
</svg>
